# Blender v2.75 (sub 0) OBJ File: 'hexpillar2.blend'
# www.blender.org
mtllib hexpillar.mtl
o Cylinder
v 19.999989 0.000010 200.000000
v 20.000008 -0.000010 0.000010
v 9.999991 17.320517 200.000000
v 10.000008 17.320498 0.000010
v -10.000005 17.320517 200.000000
v -9.999991 17.320498 0.000010
v -20.000008 0.000010 200.000000
v -19.999989 -0.000010 0.000010
v -10.000008 -17.320498 200.000000
v -9.999990 -17.320517 0.000010
v 9.999988 -17.320498 200.000000
v 10.000004 -17.320517 0.000010
vt 0.599975 0.000115
vt 0.599977 0.999885
vt 0.500000 0.999885
vt 0.499999 0.000115
vt 0.400023 0.999885
vt 0.400023 0.000115
vt 0.300046 0.999885
vt 0.300046 0.000115
vt 0.200069 0.999885
vt 0.200070 0.000115
vt 0.826835 0.600092
vt 0.653670 0.700069
vt 0.653670 0.900023
vt 0.826835 1.000000
vt 1.000000 0.900023
vt 1.000000 0.700069
vt 0.100094 0.000115
vt 0.100092 0.999885
vt 0.000115 0.999885
vt 0.000117 0.000115
vt 0.653670 0.099977
vt 0.826835 0.000000
vt 1.000000 0.099977
vt 1.000000 0.299931
vt 0.826835 0.399908
vt 0.653670 0.299931
vn 0.866000 0.500000 0.000000
vn 0.000000 1.000000 -0.000000
vn -0.866000 0.500000 -0.000000
vn -0.866000 -0.500000 -0.000000
vn 0.000000 0.000000 -1.000000
vn 0.866000 -0.500000 0.000000
vn 0.000000 -1.000000 0.000000
vn 0.000000 0.000000 1.000000
usemtl Material.001
s off
f 1/1/1 2/2/1 4/3/1 3/4/1
f 3/4/2 4/3/2 6/5/2 5/6/2
f 5/6/3 6/5/3 8/7/3 7/8/3
f 7/8/4 8/7/4 10/9/4 9/10/4
f 4/11/5 2/12/5 12/13/5 10/14/5 8/15/5 6/16/5
f 11/17/6 12/18/6 2/19/6 1/20/6
f 9/10/7 10/9/7 12/18/7 11/17/7
f 1/21/8 3/22/8 5/23/8 7/24/8 9/25/8 11/26/8
